HIERARCHY
ROOT Hips
{
	OFFSET -3.958830 18.904000 13.208200
	CHANNELS 6 Xposition Yposition Zposition Zrotation Yrotation Xrotation 
	JOINT LHipJoint
	{
		OFFSET 0.000000 0.000000 0.000000
		CHANNELS 3 Zrotation Yrotation Xrotation
		JOINT LeftUpLeg
		{
			OFFSET 1.800000 -1.400000 0.085000
			CHANNELS 3 Zrotation Yrotation Xrotation
			JOINT LeftLeg
			{
				OFFSET 2.215000 -6.000000 0.000000
				CHANNELS 3 Zrotation Yrotation Xrotation
				JOINT LeftFoot
				{
					OFFSET 2.500000 -6.900000 0.000000
					CHANNELS 3 Zrotation Yrotation Xrotation
					JOINT LeftToeBase
					{
						OFFSET 0.200000 -0.500000 1.950000
						CHANNELS 3 Zrotation Yrotation Xrotation
						End Site
						{
							OFFSET 0.000000 0.000000 0.000000
						}
					}
				}
			}
		}
	}
	JOINT RHipJoint
	{
		OFFSET 0.000000 0.000000 0.000000
		CHANNELS 3 Zrotation Yrotation Xrotation
		JOINT RightUpLeg
		{
			OFFSET -1.800000 -1.400000 0.085000
			CHANNELS 3 Zrotation Yrotation Xrotation
			JOINT RightLeg
			{
				OFFSET -2.215000 -6.000000 0.000000
				CHANNELS 3 Zrotation Yrotation Xrotation
				JOINT RightFoot
				{
					OFFSET -2.500000 -6.900000 0.000000
					CHANNELS 3 Zrotation Yrotation Xrotation
					JOINT RightToeBase
					{
						OFFSET -0.200000 -0.500000 1.950000
						CHANNELS 3 Zrotation Yrotation Xrotation
						End Site
						{
							OFFSET 0.000000 0.000000 0.000000
						}
					}
				}
			}
		}
	}
	JOINT LowerBack
	{
		OFFSET 0.000000 0.000000 0.000000
		CHANNELS 3 Zrotation Yrotation Xrotation
		JOINT Spine
		{
			OFFSET -0.087000 1.940000 -0.288900
			CHANNELS 3 Zrotation Yrotation Xrotation
			JOINT Spine1
			{
				OFFSET 0.000000 1.950000 0.060000
				CHANNELS 3 Zrotation Yrotation Xrotation
				JOINT Neck
				{
					OFFSET 0.000000 0.000000 0.000000
					CHANNELS 3 Zrotation Yrotation Xrotation
					JOINT Neck1
					{
						OFFSET 0.000000 1.600000 0.340000
						CHANNELS 3 Zrotation Yrotation Xrotation
						JOINT Head
						{
							OFFSET 0.000000 1.667000 -0.240000
							CHANNELS 3 Zrotation Yrotation Xrotation
							End Site
							{
								OFFSET 0.000000 0.000000 0.000000
							}
						}
					}
				}
				JOINT LeftShoulder
				{
					OFFSET 0.000000 0.000000 0.000000
					CHANNELS 3 Zrotation Yrotation Xrotation
					JOINT LeftArm
					{
						OFFSET 2.700000 1.550000 -0.730000
						CHANNELS 3 Zrotation Yrotation Xrotation
						JOINT LeftForeArm
						{
							OFFSET 5.450000 0.000000 0.000000
							CHANNELS 3 Zrotation Yrotation Xrotation
							JOINT LeftHand
							{
								OFFSET 3.450000 0.000000 0.000000
								CHANNELS 3 Zrotation Yrotation Xrotation
								JOINT LeftHandIndex1
								{
									OFFSET 0.750000 0.000000 0.000000
									CHANNELS 3 Zrotation Yrotation Xrotation
									End Site
									{
										OFFSET 0.000000 0.000000 0.000000
									}
								}
							}
						}
					}
				}
				JOINT RightShoulder
				{
					OFFSET 0.000000 0.000000 0.000000
					CHANNELS 3 Zrotation Yrotation Xrotation
					JOINT RightArm
					{
						OFFSET -2.700000 1.550000 -0.730000
						CHANNELS 3 Zrotation Yrotation Xrotation
						JOINT RightForeArm
						{
							OFFSET -5.450000 0.000000 0.000000
							CHANNELS 3 Zrotation Yrotation Xrotation
							JOINT RightHand
							{
								OFFSET -3.450000 0.000000 0.000000
								CHANNELS 3 Zrotation Yrotation Xrotation
								JOINT RightHandIndex1
								{
									OFFSET -0.750000 0.000000 0.000000
									CHANNELS 3 Zrotation Yrotation Xrotation
									End Site
									{
										OFFSET 0.000000 0.000000 0.000000
									}
								}
							}
						}
					}
				}
			}
		}
	}
}
MOTION
Frames: 8
Frame Time: 0.016667
0.371030 16.700210 -1.292900 -3.639978 -2.065604 -0.670830 -14.947750 13.368024 3.315987 6.051347 -2.901711 -16.223222 -12.456462 10.719613 28.768079 -0.229711 6.955632 2.456877 0.359190 -0.208830 0.207270 18.319837 -10.958972 2.940043 -3.667351 3.895106 -16.507309 11.038149 -9.766731 31.250293 -0.759662 -5.459009 2.648472 -0.113510 0.600810 0.448870 -3.921514 -1.632442 -7.982204 12.878229 -1.333002 14.911131 -6.246973 0.981496 1.513251 3.453485 -3.729176 -10.763237 -8.683875 3.562901 37.182984 -1.679890 0.545450 -11.288280 -30.098241 -13.443659 4.470471 -43.888838 -2.417596 -4.452540 -15.130375 -21.636794 -0.107394 -3.742595 2.764900 0.916000 0.226020 -0.010390 0.385890 22.821544 17.796967 8.145005 46.991157 5.448076 -6.667693 22.117625 25.099103 2.328360 1.879575 -1.278527 -0.357960 0.399960 0.081060 -0.213050 
0.372740 16.695300 -1.293460 -3.663183 -2.037657 -0.699669 -14.948803 13.358694 3.324323 6.167638 -2.930627 -16.313201 -12.587521 10.811976 28.924900 -0.215443 6.995217 2.439007 0.367190 -0.197150 0.208740 18.320168 -10.944766 2.942172 -3.773319 3.934960 -16.573420 11.222477 -9.879050 31.420566 -0.772156 -5.504317 2.630639 -0.109580 0.594590 0.452940 -3.921646 -1.641923 -7.991206 12.947564 -1.373399 15.009970 -6.277796 0.963252 1.433955 3.472263 -3.748700 -10.724455 -8.714303 3.567677 37.125363 -1.685050 0.556170 -11.372550 -30.120160 -13.314190 4.408303 -43.724340 -2.380930 -4.455443 -15.187117 -21.629382 -0.086666 -3.736828 2.775740 0.913640 0.223490 -0.005050 0.389700 22.797185 17.671244 8.112769 46.739242 5.357318 -6.670100 22.355048 25.143205 2.377635 1.882155 -1.287459 -0.350180 0.392510 0.074260 -0.209940 
0.375030 16.684310 -1.295090 -3.632188 -2.004889 -0.705469 -14.955210 13.330337 3.345497 6.341661 -3.004120 -16.533113 -12.905723 11.024226 29.253275 -0.186141 7.083588 2.398704 0.379560 -0.177170 0.208230 18.318240 -10.914910 2.943629 -4.062261 4.016319 -16.778127 11.607539 -10.103219 31.733255 -0.791344 -5.594430 2.594705 -0.102360 0.583770 0.460190 -3.911845 -1.650975 -8.007109 12.921152 -1.399943 15.133920 -6.265173 0.947815 1.341080 3.487344 -3.757003 -10.647657 -8.690948 3.539990 36.887306 -1.711130 0.570040 -11.446230 -30.039310 -13.085836 4.306357 -43.495709 -2.351148 -4.461902 -15.247730 -21.646696 -0.053926 -3.731234 2.798680 0.904760 0.221620 0.000240 0.393910 22.684609 17.445922 8.042747 46.351584 5.253821 -6.655005 22.653983 25.203428 2.439203 1.885579 -1.305616 -0.335050 0.375900 0.065120 -0.204780 
0.378190 16.669010 -1.296020 -3.597560 -1.939838 -0.701889 -14.962865 13.284425 3.376271 6.607916 -3.117043 -16.869704 -13.357638 11.347437 29.781767 -0.142127 7.225882 2.337347 0.392570 -0.153480 0.203140 18.318360 -10.870959 2.945674 -4.458386 4.121088 -17.049642 12.174356 -10.435469 32.149382 -0.818291 -5.724765 2.544735 -0.093600 0.573270 0.470810 -3.904634 -1.658984 -8.028131 12.929766 -1.450031 15.265864 -6.266044 0.913939 1.242886 3.494608 -3.795753 -10.562807 -8.710431 3.502979 36.536052 -1.709060 0.548510 -11.515530 -29.807010 -12.778258 4.186788 -43.312057 -2.315575 -4.492568 -15.279050 -21.730675 -0.018278 -3.726667 2.825771 0.892510 0.221220 0.007080 0.400920 22.434863 17.152846 7.963551 45.965396 5.109924 -6.664259 22.932400 25.307795 2.500556 1.889769 -1.327102 -0.316320 0.355790 0.054500 -0.195810 
0.381870 16.650540 -1.297360 -3.549663 -1.853471 -0.699902 -14.972897 13.226530 3.417170 6.930701 -3.262402 -17.270109 -13.928202 11.750492 30.402074 -0.084853 7.401576 2.265001 0.406440 -0.127860 0.200830 18.317911 -10.815998 2.948046 -4.955995 4.224973 -17.340726 12.894886 -10.845744 32.574279 -0.850490 -5.877005 2.486456 -0.086670 0.561740 0.481060 -3.894069 -1.670903 -8.057172 12.911242 -1.509815 15.412660 -6.265753 0.870127 1.155359 3.502686 -3.815450 -10.488386 -8.701847 3.440331 36.189836 -1.732440 0.527000 -11.533110 -29.545348 -12.486849 4.074220 -43.025743 -2.282605 -4.518395 -15.259953 -21.816741 0.018761 -3.722124 2.854846 0.876180 0.220520 0.013500 0.406230 22.156775 16.856831 7.894337 45.512278 4.919509 -6.690792 23.185009 25.461959 2.561433 1.896217 -1.349971 -0.293560 0.334050 0.042700 -0.185710 
0.386110 16.630250 -1.298730 -3.509999 -1.803562 -0.706867 -14.983077 13.161960 3.463234 7.307854 -3.408510 -17.677971 -14.573422 12.208479 31.048946 -0.022733 7.598579 2.186241 0.420260 -0.102530 0.199130 18.318680 -10.754219 2.953512 -5.447111 4.351108 -17.675286 13.605974 -11.281588 33.088746 -0.885436 -6.044126 2.425421 -0.080060 0.549880 0.489330 -3.884470 -1.682599 -8.092166 12.924994 -1.567574 15.580933 -6.279418 0.839604 1.076170 3.520357 -3.830879 -10.438570 -8.695870 3.366708 35.887292 -1.804730 0.511710 -11.496680 -29.254740 -12.213293 3.976476 -42.691454 -2.208546 -4.579552 -15.183552 -22.006715 0.056880 -3.716166 2.882614 0.860100 0.220070 0.018910 0.411580 21.829720 16.580195 7.849204 45.046211 4.679927 -6.745946 23.341466 25.656585 2.609724 1.901320 -1.372042 -0.271790 0.312890 0.030130 -0.176480 
0.390800 16.608720 -1.299180 -3.546795 -1.786019 -0.722848 -14.989270 13.086298 3.513036 7.839103 -3.541200 -18.086879 -15.333641 12.732839 31.669639 0.038213 7.831681 2.102186 0.429280 -0.087990 0.199140 18.325405 -10.686262 2.961897 -5.904113 4.499691 -18.009848 14.330140 -11.751209 33.660379 -0.924005 -6.223338 2.364683 -0.075230 0.546650 0.494540 -3.888836 -1.684950 -8.130506 13.098071 -1.660530 15.751285 -6.384603 0.803413 0.991185 3.552444 -3.863048 -10.384886 -8.721685 3.298052 35.618755 -1.898520 0.479860 -11.468720 -28.971292 -11.917524 3.869958 -42.305208 -2.089216 -4.648087 -15.050543 -22.226374 0.083504 -3.714177 2.894756 0.850850 0.221960 0.022340 0.419110 21.463878 16.280671 7.803466 44.578228 4.441984 -6.804086 23.496826 25.858371 2.666924 1.903210 -1.384762 -0.261230 0.304630 0.020060 -0.170130 
0.395800 16.586680 -1.299740 -3.570368 -1.760689 -0.781205 -14.997789 13.019008 3.563435 8.357559 -3.656767 -18.417751 -16.080006 13.247480 32.223648 0.105106 8.045350 2.024234 0.439690 -0.068110 0.204010 18.328050 -10.616944 2.972069 -6.399847 4.628381 -18.291007 15.089188 -12.238122 34.194195 -0.964904 -6.401123 2.303384 -0.072730 0.536770 0.495350 -3.884010 -1.702800 -8.175337 13.224713 -1.752278 15.987939 -6.435735 0.770311 0.876834 3.586433 -3.894452 -10.352281 -8.777320 3.231943 35.500333 -1.986420 0.463670 -11.499950 -28.754825 -11.632772 3.771937 -41.862761 -1.930868 -4.740795 -14.890348 -22.494321 0.117329 -3.706809 2.907451 0.838780 0.218870 0.027420 0.420810 21.169555 16.005798 7.775202 43.967679 4.145219 -6.852215 23.596961 26.009389 2.714021 1.910407 -1.395029 -0.244800 0.294190 0.008290 -0.163360 
